<?xml version="1.0" encoding="utf-8"?>
<!-- Generator: Adobe Illustrator 19.0.0, SVG Export Plug-In . SVG Version: 6.00 Build 0)  -->
<svg version="1.1" xmlns="http://www.w3.org/2000/svg" xmlns:xlink="http://www.w3.org/1999/xlink" x="0px" y="0px"
	 viewBox="0 0 841.9 595.3" style="enable-background:new 0 0 841.9 595.3;" xml:space="preserve">
<style type="text/css">
	.st0{fill:#FFFFFF;}
	.st1{fill:url(#XMLID_5_);}
	.st2{fill:url(#XMLID_6_);}
	.st3{fill:url(#XMLID_12_);}
	.st4{fill:url(#XMLID_40_);}
	.st5{fill:url(#XMLID_42_);}
</style>
<g id="Layer_1">
	<path id="XMLID_85_" class="st0" d="M342.8,398.5l0.3,0.6l0.1-0.6H342.8z M342.8,398.5l0.3,0.6l0.1-0.6H342.8z M342.8,398.5
		l0.3,0.6l0.1-0.6H342.8z M342.8,398.5l0.3,0.6l0.1-0.6H342.8z M342.8,398.5l0.3,0.6l0.1-0.6H342.8z M342.8,398.5l0.3,0.6l0.1-0.6
		H342.8z M342.8,398.5l0.3,0.6l0.1-0.6H342.8z"/>
	<path id="XMLID_63_" class="st0" d="M0-21v615h859V-21H0z M361.3,199.4c-1,10.8-1.6,16.5-4.4,19.1c-8,7.4-27.9-15.6-35.5-24.4
		c-7-8-5.3-7.6-10.4-13.2c-4.6-5-26.1-28.2-44-19.8c-0.5,0.3-5.5,4.6-15.5,13.2c-12.4,10.8-16,14.2-17.1,12.7
		c-2.4-3.1,13.8-21.3,11.1-39.1c-2.8-18.2-24.5-29.5-41.7-29.7c-17.5-0.2-28.4,11.3-28.9,9.9c-0.8-2.4,31.5-40.6,57.8-28.3
		c17.5,8.3,25.3,35.8,29.6,32.5c4.1-3.1-4.8-26.6,0-58.9c2-13.3,6.1-27.4,8.7-26.9c5.5,1-7.4,64.6,14.8,94.3
		c13.1,17.5,36.3,20.4,43,9.4c4.4-7.2-0.6-16.9,4.7-31.6c4.9-13.6,15-21.7,17.1-19.3c3.5,3.9-18.2,34.2-11.1,59.9
		c2.2,8.1,8,18.4,13.3,17.7c3.4-0.4,6.4-5.3,7.9-3.7c1,1,0.7,3.5,0.5,5.7C360.4,190.5,362.3,189.6,361.3,199.4z M464.2,253.3
		c-0.9,3.2-2.5,8.8-14.1,34.7c-9.9,21.9-14.8,32.8-17.3,37.1c-2.2,3.6-4.8,7.8-7,14.3c-2,6-4.2,15.8-3.9,20.3c0,0.2,0.1,1.9-0.3,4
		c-0.2,1.4-0.4,2.5-1.3,3.7c-0.3,0.3-1,1.4-2.4,2v-100c3.9-1,6.8-4.4,6.8-8.6c0-0.4,0-0.8-0.1-1.2c0-0.3-0.1-0.6-0.2-1
		c-0.8-4-4.4-7-8.6-7c-4.9,0-8.8,4-8.8,8.9c0,0.4,0,0.7,0.1,1c0,0.1,0,0.1,0,0.1c0.3,3.8,3,6.8,6.6,7.7v99.8c-1-0.6-1.6-1.4-1.8-1.7
		c-0.9-1.2-1-2.3-1.3-3.7c-0.4-2.1-0.3-3.8-0.2-4c0.3-4.4-1.9-14.3-3.9-20.3c-2.2-6.5-4.8-10.6-7-14.3c-2.5-4.3-7.5-15.2-17.3-37.1
		c-11.6-25.8-13.3-31.5-14.1-34.7c-4.4-16.3-3.6-24.6-3.2-27.9c1.2-8.8,3.5-9.1,6-20.1c4.1-18.1-0.6-24.3,3.9-29
		c7-7.3,30-4.8,41.4,7.9c11.4-12.7,34.4-15.2,41.4-7.9c4.5,4.8-0.2,10.9,3.9,29c2.5,11,4.8,11.3,6,20.1
		C467.8,228.7,468.6,236.9,464.2,253.3z M653.5,128.1c-0.5,1.4-11.2-10.1-28.3-9.9c-16.8,0.2-38.1,11.5-40.8,29.7
		c-2.7,17.8,13.2,36,10.9,39.1c-1.1,1.4-4.6-1.9-16.8-12.7c-9.7-8.6-14.6-12.9-15.1-13.2c-17.6-8.4-38.6,14.8-43.1,19.8
		c-5,5.6-3.4,5.2-10.2,13.2c-7.4,8.7-27,31.8-34.8,24.4c-2.8-2.6-3.3-8.3-4.3-19.1c-0.9-9.8,0.9-9,0-20.5c-0.2-2.2-0.4-4.7,0.5-5.7
		c1.6-1.6,4.4,3.3,7.8,3.7c5.2,0.6,10.9-9.6,13-17.7c6.9-25.7-14.3-55.9-10.9-59.9c2-2.4,12,5.7,16.8,19.3
		c5.2,14.7,0.3,24.4,4.6,31.6c6.5,10.9,29.3,8.1,42.1-9.4c21.8-29.7,9.1-93.2,14.5-94.3c2.5-0.5,6.6,13.5,8.5,26.9
		c4.7,32.4-4,55.9,0,58.9c4.2,3.2,11.8-24.3,29-32.5C622.7,87.5,654.3,125.8,653.5,128.1z"/>
	<path id="XMLID_125_" d="M373.5,269.5L373.5,269.5z"/>
	<g id="XMLID_2_">
		<path id="XMLID_11_" d="M342.8,398.5l0.3,0.6l0.1-0.6H342.8z"/>
		<path id="XMLID_13_" d="M342.8,398.5l0.3,0.6l0.1-0.6H342.8z"/>
	</g>
	<g id="XMLID_203_">
		<path id="XMLID_41_" d="M416.1,257.6v0.6h0C416.1,258,416.1,257.8,416.1,257.6z"/>
	</g>
	<g id="XMLID_195_">
		<path id="XMLID_39_" d="M372.8,179.1L372.8,179.1z"/>
	</g>
	<g id="XMLID_193_">
		<g id="XMLID_32_">
			<path id="XMLID_37_" d="M424.5,258.4c-0.2-0.7-0.4-1.3-0.8-2c-1.4-2.7-4.2-4.5-7.4-4.7h-0.4c-4.2,0-7.7,2.9-8.6,6.8
				c-0.2,0.7-0.3,1.4-0.3,2c0,0.3,0,0.5,0,0.8c0-0.3-0.1-0.7-0.1-1c0-4.9,4-8.9,8.8-8.9C420.1,251.4,423.6,254.4,424.5,258.4z"/>
		</g>
	</g>
	<g id="XMLID_191_">
		<g id="XMLID_17_">
			<path id="XMLID_35_" d="M413.8,269.2V369c0,0,0,0,0,0L413.8,269.2L413.8,269.2z"/>
		</g>
	</g>
	<g id="XMLID_25_">
		<linearGradient id="XMLID_5_" gradientUnits="userSpaceOnUse" x1="413.73" y1="267.7543" x2="413.73" y2="369.0281">
			<stop  offset="0" style="stop-color:#89C26D;stop-opacity:0"/>
			<stop  offset="0.1412" style="stop-color:#81BD57;stop-opacity:0.1412"/>
			<stop  offset="0.3113" style="stop-color:#79BA44;stop-opacity:0.3113"/>
			<stop  offset="0.4971" style="stop-color:#73B737;stop-opacity:0.4971"/>
			<stop  offset="0.7083" style="stop-color:#70B62F;stop-opacity:0.7083"/>
			<stop  offset="1" style="stop-color:#6EB52C"/>
		</linearGradient>
		<path id="XMLID_33_" class="st1" d="M413.7,269.2L413.7,269.2l0,99.8c0,0,0,0,0,0V269.2z"/>
	</g>
	<g id="XMLID_31_">
		<linearGradient id="XMLID_6_" gradientUnits="userSpaceOnUse" x1="415.725" y1="251.2594" x2="415.725" y2="261.3158">
			<stop  offset="0" style="stop-color:#89C26D;stop-opacity:0"/>
			<stop  offset="0.1412" style="stop-color:#81BD57;stop-opacity:0.1412"/>
			<stop  offset="0.3113" style="stop-color:#79BA44;stop-opacity:0.3113"/>
			<stop  offset="0.4971" style="stop-color:#73B737;stop-opacity:0.4971"/>
			<stop  offset="0.7083" style="stop-color:#70B62F;stop-opacity:0.7083"/>
			<stop  offset="1" style="stop-color:#6EB52C"/>
		</linearGradient>
		<path id="XMLID_22_" class="st2" d="M424.5,258.4c-0.2-0.7-0.4-1.3-0.8-2c-1.4-2.7-4.2-4.5-7.4-4.7h-0.4c-4.2,0-7.7,2.9-8.6,6.8
			c-0.2,0.7-0.3,1.4-0.3,2c0,0.3,0,0.5,0,0.8c0-0.3-0.1-0.7-0.1-1c0-4.9,4-8.9,8.8-8.9C420.1,251.4,423.6,254.4,424.5,258.4z"/>
	</g>
</g>
<g id="Layer_2">
	<linearGradient id="XMLID_12_" gradientUnits="userSpaceOnUse" x1="342.1714" y1="150.3914" x2="168.0798" y2="85.2137">
		<stop  offset="0" style="stop-color:#89C26D;stop-opacity:0"/>
		<stop  offset="0.1412" style="stop-color:#81BD57;stop-opacity:0.1412"/>
		<stop  offset="0.3113" style="stop-color:#79BA44;stop-opacity:0.3113"/>
		<stop  offset="0.4971" style="stop-color:#73B737;stop-opacity:0.4971"/>
		<stop  offset="0.7083" style="stop-color:#70B62F;stop-opacity:0.7083"/>
		<stop  offset="1" style="stop-color:#6EB52C"/>
	</linearGradient>
	<path id="XMLID_190_" class="st3" d="M356.9,218.5c2.8-2.6,3.4-8.3,4.4-19.1c0.9-9.8-0.9-9,0-20.5c0.2-2.2,0.5-4.7-0.5-5.7
		c-1.6-1.6-4.5,3.3-7.9,3.7c-5.3,0.6-11.1-9.6-13.3-17.7c-7.1-25.7,14.6-55.9,11.1-59.9c-2.1-2.4-12.2,5.7-17.1,19.3
		c-5.3,14.7-0.3,24.4-4.7,31.6c-6.7,10.9-29.9,8.1-43-9.4c-22.2-29.7-9.3-93.2-14.8-94.3c-2.6-0.5-6.8,13.5-8.7,26.9
		c-4.8,32.4,4.1,55.9,0,58.9c-4.3,3.2-12-24.3-29.6-32.5c-26.3-12.4-58.6,25.9-57.8,28.3c0.5,1.4,11.4-10.1,28.9-9.9
		c17.2,0.1,38.9,11.5,41.7,29.7c2.7,17.8-13.5,36-11.1,39.1c1.1,1.4,4.7-1.9,17.1-12.7c10-8.6,14.9-13,15.5-13.2
		c18-8.4,39.4,14.8,44,19.8c5.1,5.6,3.5,5.2,10.4,13.2C329,202.9,348.9,225.9,356.9,218.5z"/>
	<linearGradient id="XMLID_40_" gradientUnits="userSpaceOnUse" x1="484.6794" y1="145.4558" x2="659.3766" y2="91.6436">
		<stop  offset="0" style="stop-color:#89C26D;stop-opacity:0"/>
		<stop  offset="0.1412" style="stop-color:#81BD57;stop-opacity:0.1412"/>
		<stop  offset="0.3113" style="stop-color:#79BA44;stop-opacity:0.3113"/>
		<stop  offset="0.4971" style="stop-color:#73B737;stop-opacity:0.4971"/>
		<stop  offset="0.7083" style="stop-color:#70B62F;stop-opacity:0.7083"/>
		<stop  offset="1" style="stop-color:#6EB52C"/>
	</linearGradient>
	<path id="XMLID_189_" class="st4" d="M475.3,218.5c-2.8-2.6-3.3-8.3-4.3-19.1c-0.9-9.8,0.9-9,0-20.5c-0.2-2.2-0.4-4.7,0.5-5.7
		c1.6-1.6,4.4,3.3,7.8,3.7c5.2,0.6,10.9-9.6,13-17.7c6.9-25.7-14.3-55.9-10.9-59.9c2-2.4,12,5.7,16.8,19.3
		c5.2,14.7,0.3,24.4,4.6,31.6c6.5,10.9,29.3,8.1,42.1-9.4c21.8-29.7,9.1-93.2,14.5-94.3c2.6-0.5,6.6,13.5,8.6,26.9
		c4.7,32.4-4,55.9,0,58.9c4.2,3.2,11.8-24.3,29-32.5c25.7-12.4,57.4,25.9,56.6,28.3c-0.4,1.4-11.2-10.1-28.3-9.9
		c-16.8,0.1-38.1,11.5-40.8,29.7c-2.7,17.8,13.2,36,10.9,39.1c-1.1,1.4-4.6-1.9-16.8-12.7c-9.7-8.6-14.6-13-15.1-13.2
		c-17.6-8.4-38.6,14.8-43.1,19.8c-5,5.6-3.4,5.2-10.2,13.2C502.7,202.9,483.1,225.9,475.3,218.5z"/>
	<linearGradient id="XMLID_42_" gradientUnits="userSpaceOnUse" x1="416.1216" y1="203.313" x2="416.1216" y2="403.3386">
		<stop  offset="0" style="stop-color:#89C26D;stop-opacity:0"/>
		<stop  offset="0.1412" style="stop-color:#81BD57;stop-opacity:0.1412"/>
		<stop  offset="0.3113" style="stop-color:#79BA44;stop-opacity:0.3113"/>
		<stop  offset="0.4971" style="stop-color:#73B737;stop-opacity:0.4971"/>
		<stop  offset="0.7083" style="stop-color:#70B62F;stop-opacity:0.7083"/>
		<stop  offset="1" style="stop-color:#6EB52C"/>
	</linearGradient>
	<path id="XMLID_218_" class="st5" d="M464.2,253.3c-0.9,3.2-2.5,8.8-14.1,34.7c-9.9,21.9-14.8,32.8-17.3,37.1
		c-2.2,3.6-4.8,7.8-7,14.3c-2,6-4.2,15.8-3.9,20.3c0,0.2,0.1,1.9-0.3,4c-0.2,1.4-0.4,2.5-1.3,3.7c-0.3,0.3-1,1.4-2.4,2V269.2
		c3.9-1,6.7-4.4,6.7-8.6c0-0.4,0-0.8-0.1-1.2c0-0.3-0.1-0.6-0.2-1c-0.2-0.7-0.4-1.3-0.8-2c-1.4-2.7-4.2-4.5-7.4-4.7h-0.4
		c-4.2,0-7.7,2.9-8.6,6.8c-0.2,0.7-0.3,1.4-0.3,2.1c0,0.3,0,0.5,0,0.8c0,0.1,0,0.1,0,0.1c0.3,3.8,3,6.8,6.6,7.7h0V369c0,0,0,0,0,0
		c-1-0.6-1.6-1.4-1.8-1.7c-0.9-1.2-1-2.3-1.3-3.7c-0.4-2.1-0.3-3.8-0.2-4c0.3-4.4-1.9-14.3-3.9-20.3c-2.2-6.5-4.8-10.6-7-14.3
		c-2.5-4.3-7.5-15.2-17.3-37.1c-11.6-25.8-13.3-31.5-14.1-34.7c-4.4-16.3-3.6-24.6-3.2-27.9c1.2-8.8,3.5-9.2,6-20.1
		c4.1-18.1-0.6-24.3,3.9-29c7-7.3,30-4.8,41.4,7.9c11.4-12.7,34.4-15.2,41.4-7.9c4.5,4.8-0.2,10.9,3.9,29c2.5,11,4.8,11.3,6,20.1
		C467.8,228.7,468.6,236.9,464.2,253.3z"/>
</g>
<g id="Layer_3">
	<rect id="XMLID_1_" x="380.7" y="362" class="st0" width="71.7" height="51.7"/>
	<rect id="XMLID_3_" x="398.7" y="359" class="st0" width="32" height="14.3"/>
</g>
</svg>
