<?xml version="1.0" encoding="utf-8"?>
<!-- Generator: Adobe Illustrator 22.1.0, SVG Export Plug-In . SVG Version: 6.00 Build 0)  -->
<svg version="1.1" id="Layer_1" xmlns="http://www.w3.org/2000/svg" xmlns:xlink="http://www.w3.org/1999/xlink" x="0px" y="0px"
	 viewBox="0 0 1000 1000" style="enable-background:new 0 0 1000 1000;" xml:space="preserve">
<style type="text/css">
	.st0{fill:#A5A5A5;}
	.st1{fill:#FFFFFF;}
</style>
<g>
	<path class="st0" d="M979,200.8v600.5c0,98.3-80.4,178.8-178.8,178.8H199.8C101.4,980,21,899.6,21,801.2V200.8
		C21,102.4,101.4,22,199.8,22h600.5C898.6,22,979,102.4,979,200.8z"/>
</g>
<g>
	<path class="st1" d="M586.4,354.5c11.3-15,29.7-22.5,55.1-22.5c30.5,0,63.8,5.7,99.7,17l45.8-131.4C739,199.2,684.1,190,622.3,190
		c-80.9,0-139.7,17.2-176.5,51.5c-36.8,34.4-55.1,88.8-55.1,163.4v48l-98.4,48v86h98.4v393h178.7V587h155V453h-155v-40.9
		C569.4,388.7,575.1,369.5,586.4,354.5z"/>
</g>
</svg>
