<?xml version="1.0" encoding="utf-8"?>
<!-- Generator: Adobe Illustrator 23.0.0, SVG Export Plug-In . SVG Version: 6.00 Build 0)  -->
<svg version="1.1" xmlns="http://www.w3.org/2000/svg" xmlns:xlink="http://www.w3.org/1999/xlink" x="0px" y="0px"
	 viewBox="0 0 1000 1000" style="enable-background:new 0 0 1000 1000;" xml:space="preserve">
<style type="text/css">
	.st0{display:none;}
	.st1{display:inline;fill:#999999;}
	.st2{fill:#FFFFFF;}
</style>
<g id="Layer_2" class="st0">
	<path class="st1" d="M1064,1102H-34c-6.6,0-12-5.4-12-12V-44c0-6.6,5.4-12,12-12h1098c6.6,0,12,5.4,12,12v1134
		C1076,1096.6,1070.6,1102,1064,1102z"/>
</g>
<g id="Layer_1">
	<path class="st2" d="M504.78,183.27c-5.87-3.37-11.31-3.42-16.3,0L185,368.77c0,5.12,4.19,9.31,9.31,9.31h68.3v351.6
		c0,5.12,4.19,9.31,9.31,9.31h457.16c5.12,0,9.31-4.19,9.31-9.31v-351.6h66.75c5.12,0,9.31-4.19,9.31-9.31L504.78,183.27z
		 M693.39,693.98c0,5.12-4.19,9.31-9.31,9.31H571.93c-5.12,0-9.31-4.19-9.31-9.31V485.19c0-5.12,4.19-9.31,9.31-9.31h112.14
		c5.12,0,9.31,4.19,9.31,9.31V693.98z"/>
</g>
</svg>
