<?xml version="1.0" encoding="utf-8"?>
<!-- Generator: Adobe Illustrator 22.1.0, SVG Export Plug-In . SVG Version: 6.00 Build 0)  -->
<svg version="1.1" id="Layer_1" xmlns="http://www.w3.org/2000/svg" xmlns:xlink="http://www.w3.org/1999/xlink" x="0px" y="0px"
	 viewBox="0 0 1000 1000" style="enable-background:new 0 0 1000 1000;" xml:space="preserve">
<style type="text/css">
	.st0{fill:#A5A5A5;}
	.st1{fill:#FFFFFF;}
</style>
<path class="st0" d="M800.2,980H199.8C101.4,980,21,899.6,21,801.2V200.8C21,102.4,101.4,22,199.8,22h600.5
	C898.6,22,979,102.4,979,200.8v600.5C979,899.6,898.6,980,800.2,980z"/>
<circle class="st1" cx="826" cy="162" r="57"/>
<g>
	<path class="st1" d="M500.6,246.9c38.7,0,76.3,7.6,111.6,22.5c34.1,14.4,64.8,35.1,91.2,61.5c26.4,26.3,47,57,61.5,91.2
		c14.9,35.3,22.5,72.9,22.5,111.6s-7.6,76.3-22.5,111.6c-14.4,34.1-35.1,64.8-61.5,91.2c-26.4,26.4-57,47-91.2,61.5
		c-35.3,14.9-72.9,22.5-111.6,22.5s-76.3-7.6-111.6-22.5c-34.1-14.4-64.8-35.1-91.2-61.5c-26.4-26.4-47-57-61.5-91.2
		c-14.9-35.3-22.5-72.9-22.5-111.6s7.6-76.3,22.5-111.6c14.4-34.1,35.1-64.8,61.5-91.2c26.3-26.4,57-47,91.2-61.5
		C424.3,254.4,461.9,246.9,500.6,246.9 M500.6,198.9c-184.9,0-334.8,149.9-334.8,334.8s149.9,334.8,334.8,334.8
		s334.8-149.9,334.8-334.8S685.5,198.9,500.6,198.9L500.6,198.9z"/>
</g>
</svg>
