<?xml version="1.0" encoding="utf-8"?>
<!-- Generator: Adobe Illustrator 23.0.0, SVG Export Plug-In . SVG Version: 6.00 Build 0)  -->
<svg version="1.1" id="Layer_1" xmlns="http://www.w3.org/2000/svg" xmlns:xlink="http://www.w3.org/1999/xlink" x="0px" y="0px"
	 viewBox="0 0 1000 1000" style="enable-background:new 0 0 1000 1000;" xml:space="preserve">
<style type="text/css">
	.st0{fill:#A5A5A5;}
</style>
<g>
	<path class="st0" d="M800.3,22H199.8C101.4,22,21,102.4,21,200.8v600.4c0,98.4,80.4,178.8,178.8,178.9h600.4
		c98.4,0,178.8-80.5,178.8-178.8V200.8C979,102.4,898.6,22,800.3,22z M302.06,806.58H139.78V336.34h162.28V806.58z M221.54,290.69
		c-57.27,0-85.91-23.8-85.91-71.39c0-24.35,6.78-42.47,20.34-54.37c13.55-11.89,35.41-17.85,65.57-17.85
		c30.16,0,52.16,6.09,66,18.26c13.83,12.18,20.75,30.17,20.75,53.96C308.29,266.89,279.37,290.69,221.54,290.69z M874.4,806.58
		H712.12v-256.5c0-31.26-4.5-54.84-13.49-70.76c-8.99-15.91-23.45-23.86-43.37-23.86c-27.39,0-47.18,10.93-59.35,32.78
		c-12.18,21.87-18.26,59.35-18.26,112.48v205.86H415.37V336.34H537.8l20.34,58.11h9.55c13.83-22.14,32.99-38.74,57.48-49.81
		c24.49-11.06,52.64-16.6,84.46-16.6c52.02,0,92.48,15.08,121.4,45.24c28.91,30.16,43.37,72.63,43.37,127.42V806.58z"/>
</g>
</svg>
