<?xml version="1.0" encoding="utf-8"?>
<!-- Generator: Adobe Illustrator 23.0.0, SVG Export Plug-In . SVG Version: 6.00 Build 0)  -->
<svg version="1.1" id="Layer_1" xmlns="http://www.w3.org/2000/svg" xmlns:xlink="http://www.w3.org/1999/xlink" x="0px" y="0px"
	 viewBox="0 0 1000 1000" style="enable-background:new 0 0 1000 1000;" xml:space="preserve">
<style type="text/css">
	.st0{fill:#A5A5A5;}
	.st1{fill:#FFFFFF;}
</style>
<g>
	<path class="st0" d="M499.81,435.02L111.22,45.61C137.36,30.6,167.62,22,199.8,22h600.5c32.47,0,62.98,8.77,89.29,24.06
		L499.81,435.02z"/>
	<path class="st0" d="M979,200.8v600.5c0,98.3-80.4,178.8-178.8,178.8H199.8C101.4,980,21,899.6,21,801.2V200.8
		c0-32.62,8.83-63.26,24.23-89.64L467.08,533.9c9.09,9.1,21,13.65,32.92,13.65c11.88,0,23.77-4.53,32.85-13.59
		c1.41-1.4,2.7-2.87,3.89-4.4l0.01-0.01l0.03-0.04l418.45-417.57C970.34,138.15,979,168.5,979,200.8z"/>
</g>
<g>
	<path class="st1" d="M955.23,111.94L536.78,529.51l-0.03,0.04l-0.01,0.01c-1.19,1.53-2.48,3-3.89,4.4
		c-9.08,9.06-20.97,13.59-32.85,13.59c-11.92,0-23.83-4.55-32.92-13.65L45.23,111.16c15.86-27.19,38.68-49.87,65.99-65.55
		l388.59,389.41L889.59,46.06C916.8,61.88,939.5,84.66,955.23,111.94z"/>
</g>
</svg>
