<?xml version="1.0" encoding="utf-8"?>
<!-- Generator: Adobe Illustrator 23.0.0, SVG Export Plug-In . SVG Version: 6.00 Build 0)  -->
<svg version="1.1" id="Layer_1" xmlns="http://www.w3.org/2000/svg" xmlns:xlink="http://www.w3.org/1999/xlink" x="0px" y="0px"
	 viewBox="0 0 1000 1000" style="enable-background:new 0 0 1000 1000;" xml:space="preserve">
<style type="text/css">
	.st0{fill:#A5A5A5;}
	.st1{fill:#FFFFFF;}
</style>
<g>
	<path class="st0" d="M979,200.8v600.5c0,98.3-80.4,178.8-178.8,178.8H199.8C101.4,980,21,899.6,21,801.2V200.8
		C21,102.4,101.4,22,199.8,22h600.5C898.6,22,979,102.4,979,200.8z"/>
</g>
<path class="st1" d="M682.19,521.53l140.72,140.72c4.67,4.67,4.67,12.3,0,16.97l-47.52,47.52c-4.67,4.67-12.3,4.67-16.97,0
	L617.7,586.02c-4.67-4.67-4.67-12.3,0-16.97l47.52-47.52C669.88,516.86,677.52,516.86,682.19,521.53z"/>
<path class="st1" d="M358.56,197.9l140.72,140.72c4.67,4.67,4.67,12.3,0,16.97l-47.52,47.52c-4.67,4.67-12.3,4.67-16.97,0
	L294.07,262.39c-4.67-4.67-4.67-12.3,0-16.97l47.52-47.52C346.26,193.24,353.9,193.24,358.56,197.9z"/>
<path class="st1" d="M265.48,272.69l140.26,140.03c-92.56,92.56,112.2,297.32,204.76,204.76l137.62,137.85
	c2.75,2.75,2.75,7.24,0,9.99c0,0-86.29,81.8-89.04,79.05c-233.67-72.87-398.7-228.73-482.64-482.64
	c-2.75-2.75,79.05-89.04,79.05-89.04C258.25,269.94,262.74,269.94,265.48,272.69z"/>
</svg>
