<?xml version="1.0" encoding="utf-8"?>
<!-- Generator: Adobe Illustrator 23.0.0, SVG Export Plug-In . SVG Version: 6.00 Build 0)  -->
<svg version="1.1" id="Layer_1" xmlns="http://www.w3.org/2000/svg" xmlns:xlink="http://www.w3.org/1999/xlink" x="0px" y="0px"
	 viewBox="0 0 1000 1000" style="enable-background:new 0 0 1000 1000;" xml:space="preserve">
<style type="text/css">
	.st0{fill:#FFFFFF;}
</style>
<path class="st0" d="M681.16,502.16l140.72,140.72c4.67,4.67,4.67,12.3,0,16.97l-47.52,47.52c-4.67,4.67-12.3,4.67-16.97,0
	L616.67,566.65c-4.67-4.67-4.67-12.3,0-16.97l47.52-47.52C668.85,497.49,676.49,497.49,681.16,502.16z"/>
<path class="st0" d="M357.53,178.53l140.72,140.72c4.67,4.67,4.67,12.3,0,16.97l-47.52,47.52c-4.67,4.67-12.3,4.67-16.97,0
	L293.04,243.02c-4.67-4.67-4.67-12.3,0-16.97l47.52-47.52C345.23,173.87,352.87,173.87,357.53,178.53z"/>
<path class="st0" d="M264.45,253.32l140.26,140.03c-92.56,92.56,112.2,297.32,204.76,204.76l137.62,137.85
	c2.75,2.75,2.75,7.24,0,9.99c0,0-86.29,81.8-89.04,79.05c-233.67-72.87-398.7-228.73-482.64-482.64
	c-2.75-2.75,79.05-89.04,79.05-89.04C257.22,250.57,261.71,250.57,264.45,253.32z"/>
</svg>
