<?xml version="1.0" encoding="utf-8"?>
<!-- Generator: Adobe Illustrator 19.0.0, SVG Export Plug-In . SVG Version: 6.00 Build 0)  -->
<svg version="1.1" id="Layer_2" xmlns="http://www.w3.org/2000/svg" xmlns:xlink="http://www.w3.org/1999/xlink" x="0px" y="0px"
	 viewBox="0 0 1280 800" style="enable-background:new 0 0 1280 800;" xml:space="preserve">
<style type="text/css">
	.st0{fill:#FFFFFF;}
</style>
<path id="XMLID_50_" class="st0" d="M145,90v615h984V90H145z M506,497h-17v46h-8v-46h-16v-6h41V497z M541,544h-6v-53h6V544z
	 M563.5,544L549,525.1v-10.5c4-0.1,7-0.7,8.8-1.8c2-1.4,3-3.6,3-6.8c0-3.2-0.9-5.5-2.8-6.8c-1.6-1.1-5.1-1.7-9.1-1.8V491h1.6
	c5.7,0,9.9,1.2,12.8,3.8c2.9,2.6,4.3,6.4,4.3,11.6c0,4.5-1.1,8-3.3,10.4c-2.3,2.5-5.6,4.2-10.1,4.7l17.9,22.5H563.5z M576.8,294
	c-1.2,12.8-1.9,19.5-5.2,22.6c-9.4,8.7-33-18.5-42-28.9c-8.2-9.5-6.2-9-12.3-15.6c-5.4-5.9-30.8-33.4-52.1-23.4
	c-0.6,0.3-6.5,5.4-18.3,15.6c-14.7,12.8-19,16.7-20.3,15.1c-2.9-3.7,16.3-25.2,13.1-46.3c-3.3-21.6-29-35-49.3-35.1
	c-20.7-0.2-33.7,13.3-34.2,11.7c-0.9-2.8,37.3-48.1,68.4-33.5c20.8,9.8,29.9,42.3,35,38.5c4.9-3.6-5.7-31.4,0-69.7
	c2.3-15.8,7.3-32.4,10.3-31.8c6.5,1.2-8.8,76.5,17.5,111.6c15.5,20.7,43,24.1,50.9,11.2c5.2-8.5-0.7-19.9,5.6-37.4
	c5.8-16.2,17.8-25.7,20.3-22.9c4.1,4.7-21.5,40.4-13.1,70.8c2.6,9.6,9.5,21.7,15.8,21c4-0.5,7.5-6.3,9.4-4.4
	c1.1,1.1,0.8,4.1,0.6,6.7C575.6,283.3,577.9,282.4,576.8,294z M612,543h-8v-52h8V543z M654,543h-8v-52h8V543z M678.9,539.1
	c-3.4,2.5-8.9,3.9-16.4,3.9H662v-6.9c5-0.1,9.1-0.8,11.3-2c2.2-1.4,3.1-3.7,3.1-6.9c0-3.4-0.8-5.8-2.9-7.1
	c-1.9-1.2-6.5-1.8-11.5-1.9v-6.4c3-0.1,6.6-0.6,8.2-1.6c1.9-1.1,2.7-3.1,2.7-5.8c0-2.8-0.6-4.8-2.3-5.9c-1.4-0.9-5.6-1.5-8.6-1.5
	v-6.8c3,0,6.3,0.1,8.1,0.4c1.9,0.3,3.2,0.9,4.5,1.6c1.9,1.2,3.4,2.8,4.4,4.7c1,1.9,1.5,4.1,1.5,6.7c0,2.7-0.6,4.9-1.9,6.6
	c-1.2,1.7-3.1,3-5.6,3.7c3.8,0.8,6.6,2.3,8.5,4.5c1.8,2.2,2.7,5.2,2.7,9C684.1,532.8,682.4,536.7,678.9,539.1z M698.5,357.3
	c-1,3.7-2.9,10.4-16.7,41c-11.7,25.9-17.5,38.9-20.5,44c-2.6,4.2-5.7,9.1-8.3,16.8c-1.4,4.2-2.9,9.9-3.8,14.9H645v-98.3
	c4-1.6,6.7-5.4,6.7-9.8c0-1.8-0.4-3.7-1.2-5.1c-1.6-3.2-4.8-4.8-8.6-5.8h-0.5c-5,0-9.1,3.6-10.2,8.3c-0.2,0.7-0.2,1.7-0.2,2.5
	c0,4.6,3.1,8.6,7.1,10V474h-4.1c-0.9-5-2.4-10.7-3.8-14.9c-2.5-7.7-5.7-12.7-8.2-16.9c-3-5.1-8.9-18.1-20.5-44
	c-13.8-30.6-15.8-37.3-16.8-41c-5.2-19.4-4.3-29.2-3.8-33.1c1.5-10.4,4.2-10.9,7.2-23.9c4.8-21.4-0.8-28.7,4.6-34.3
	c8.3-8.7,35.5-5.7,49,9.3c13.5-15,40.7-18,49-9.3c5.3,5.6-0.3,12.9,4.6,34.3c2.9,13,5.7,13.5,7.1,23.9
	C702.8,328.1,703.8,337.9,698.5,357.3z M753,519.7c0,7.9-1.4,13.9-4.6,18.1c-3.2,4.1-7.8,6.2-13.9,6.2c-6.2,0-11.2-2.1-14.4-6.2
	c-3.2-4.1-5.1-10.1-5.1-18.1V491h8v28.6c0,5.8,1,10.1,2.9,13c1.9,2.9,4.7,4.4,8.5,4.4c3.8,0,6.3-1.4,8.2-4.3
	c1.9-2.9,2.4-7.2,2.4-13.1V491h8V519.7z M812.1,539.5c-2.9,2.9-6.7,4.4-11.4,4.4c-4.5,0-8.3-1.2-11.4-3.6c-3.1-2.4-5.1-5.7-6-9.9
	l6.5-2.2c0.8,2.9,2.1,5.1,4,6.6c1.8,1.5,4.1,2.3,6.8,2.3c2.6,0,4.7-0.8,6.2-2.3c1.5-1.5,2.3-3.6,2.3-6.3c0-2.1-0.6-3.9-1.9-5.2
	c-1.3-1.4-4.1-2.9-8.4-4.7c-5-2.1-8.6-4.3-10.6-6.6c-2.1-2.3-3.1-5.3-3.1-8.8c0-4.1,1.4-7.5,4.1-10.2c2.7-2.7,6.3-4,10.6-4
	c2.9,0,5.6,0.7,8,2c2.4,1.3,4.6,3.3,6.5,6l-5,4.9c-1.5-2.1-3.1-3.7-4.6-4.7c-1.6-1-3.2-1.5-4.9-1.5c-2.1,0-3.9,0.6-5.2,1.8
	c-1.3,1.2-2,2.8-2,4.8c0,1.6,0.4,2.9,1.3,4.1c0.9,1.2,2.2,2.2,4.2,3.2c1.7,0.8,3.7,1.7,6,2.7c2.3,1,3.7,1.6,4.2,1.9
	c3.1,2,5.3,4.1,6.5,6.1c1.2,2.1,1.8,4.7,1.8,7.9C816.5,532.9,815.1,536.7,812.1,539.5z M922.6,209.6c-0.5,1.6-13.2-11.9-33.5-11.7
	c-19.9,0.2-45,13.6-48.3,35.1c-3.2,21.1,15.7,42.6,12.8,46.3c-1.3,1.7-5.4-2.3-19.9-15.1c-11.5-10.2-17.3-15.3-17.9-15.6
	c-20.8-9.9-45.7,17.6-51,23.4c-6,6.6-4,6.1-12.1,15.6c-8.8,10.3-31.9,37.6-41.1,28.9c-3.3-3.1-3.9-9.8-5.1-22.6
	c-1.1-11.6,1.1-10.6,0-24.3c-0.2-2.6-0.5-5.6,0.6-6.7c1.8-1.9,5.2,3.9,9.2,4.4c6.1,0.7,12.8-11.4,15.4-21
	c8.2-30.4-16.9-66.2-12.8-70.8c2.4-2.8,14.2,6.7,19.9,22.9c6.1,17.4,0.3,28.8,5.5,37.4c7.7,12.9,34.6,9.6,49.8-11.2
	c25.7-35.1,10.8-110.3,17.1-111.6c3-0.6,7.8,16,10.1,31.8c5.5,38.3-4.7,66.1,0,69.7c5,3.8,13.9-28.7,34.3-38.5
	C886,161.5,923.5,206.8,922.6,209.6z"/>
<rect id="XMLID_1_" x="922.6" class="st0" width="357.4" height="800"/>
<rect id="XMLID_2_" class="st0" width="309" height="800"/>
<rect id="XMLID_3_" x="107" y="576.3" class="st0" width="1173" height="223.7"/>
<rect id="XMLID_4_" x="119.8" class="st0" width="1173" height="115.3"/>
</svg>
