<?xml version="1.0" encoding="utf-8"?>
<!-- Generator: Adobe Illustrator 19.0.0, SVG Export Plug-In . SVG Version: 6.00 Build 0)  -->
<svg version="1.1" id="Layer_1" xmlns="http://www.w3.org/2000/svg" xmlns:xlink="http://www.w3.org/1999/xlink" x="0px" y="0px"
	 viewBox="0 0 841.9 595.3" style="enable-background:new 0 0 841.9 595.3;" xml:space="preserve">
<style type="text/css">
	.st0{fill:#FFFFFF;}
	.st1{fill:#1D1D1B;}
</style>
<path class="st0" d="M0,0v595.3h841.9V0H0z M354.9,229.6c-1.3,13.5-2,20.6-5.5,23.8c-10,9.2-34.9-19.5-44.3-30.5
	c-8.7-10-6.6-9.5-13-16.5c-5.7-6.2-32.6-35.2-55-24.7c-0.7,0.3-6.9,5.7-19.3,16.5c-15.5,13.5-20,17.7-21.4,15.9
	c-3-3.9,17.2-26.6,13.8-48.9c-3.5-22.8-30.6-36.9-52-37.1c-21.8-0.2-35.5,14.1-36.1,12.4c-1-3,39.4-50.8,72.2-35.3
	c21.9,10.3,31.6,44.7,36.9,40.6c5.1-3.8-6-33.2,0-73.6c2.5-16.7,7.7-34.2,10.9-33.6c6.9,1.3-9.3,80.7,18.5,117.8
	c16.4,21.9,45.4,25.4,53.7,11.8c5.5-9-0.7-21.1,5.9-39.4c6.1-17.1,18.8-27.1,21.4-24.1c4.4,4.9-22.7,42.7-13.8,74.8
	c2.8,10.1,10,22.9,16.6,22.1c4.3-0.5,7.9-6.6,9.9-4.6c1.2,1.2,0.9,4.4,0.6,7.1C353.7,218.4,356.1,217.3,354.9,229.6z M483.3,296.4
	c-1.1,4-3.1,11-17.6,43.3c-12.3,27.3-18.5,41-21.6,46.4c-2.7,4.5-6,9.7-8.7,17.8c-1.8,5.5-3.8,13.4-4.5,19.5h-5.2V316.3
	c4.8-1.2,8.4-5.5,8.4-10.8c0-1.9-0.5-3.6-1.3-5.2c-1.8-3.3-5.2-5.7-9.3-5.8H423c-5.2,0-9.6,3.6-10.7,8.5c-0.2,0.8-0.3,1.7-0.3,2.6
	c0,5.2,3.6,9.6,8.4,10.8v107.1h-4.5c-0.8-6.1-2.8-14-4.6-19.5c-2.7-8.1-6-13.3-8.7-17.8c-3.2-5.4-9.3-19-21.6-46.4
	c-14.5-32.3-16.6-39.3-17.6-43.3c-5.5-20.4-4.5-30.7-4-34.9c1.5-11,4.4-11.4,7.5-25.2c5.1-22.6-0.8-30.3,4.9-36.2
	c8.7-9.1,37.4-6,51.7,9.9c14.2-15.9,42.9-19,51.7-9.9c5.6,5.9-0.2,13.6,4.9,36.2c3.1,13.7,6,14.2,7.5,25.2
	C487.9,265.7,488.9,276,483.3,296.4z M719.9,140.5c-0.6,1.7-14-12.5-35.3-12.4c-21,0.2-47.6,14.3-51,37.1
	c-3.3,22.2,16.5,44.9,13.6,48.9c-1.3,1.8-5.8-2.4-21-15.9c-12.2-10.8-18.3-16.2-18.9-16.5c-22-10.5-48.2,18.5-53.8,24.7
	c-6.3,6.9-4.2,6.4-12.7,16.5c-9.3,10.9-33.7,39.7-43.4,30.5c-3.4-3.3-4.1-10.3-5.4-23.8c-1.2-12.3,1.2-11.2,0-25.6
	c-0.2-2.7-0.6-5.9,0.6-7.1c1.9-2,5.5,4.1,9.7,4.6c6.5,0.8,13.6-12,16.3-22.1c8.6-32.1-17.8-69.8-13.6-74.8c2.5-3,15,7.1,21,24.1
	c6.5,18.4,0.4,30.4,5.8,39.4c8.2,13.7,36.6,10.1,52.6-11.8c27.2-37,11.3-116.5,18.1-117.8c3.2-0.6,8.3,16.9,10.7,33.6
	c5.8,40.5-5,69.8,0,73.6c5.3,4,14.7-30.3,36.2-40.6C681.3,89.8,720.8,137.6,719.9,140.5z"/>
<path id="XMLID_125_" class="st1" d="M354.5,251.5L354.5,251.5z"/>
</svg>
