<?xml version="1.0" encoding="utf-8"?>
<!-- Generator: Adobe Illustrator 23.0.0, SVG Export Plug-In . SVG Version: 6.00 Build 0)  -->
<svg version="1.1" id="Layer_1" xmlns="http://www.w3.org/2000/svg" xmlns:xlink="http://www.w3.org/1999/xlink" x="0px" y="0px"
	 viewBox="0 0 2000 2000" style="enable-background:new 0 0 2000 2000;" xml:space="preserve">
<path d="M1276.48,1083.58c-0.94-1.87-1.87-4.31-2.81-6.18c-8.43-18.92-15.55-38.78-20.79-59.2c-7.49-28.85-11.43-59.2-11.43-90.3
	c0-10.87,0.56-21.36,1.5-31.66c0.94-12.74,2.81-25.48,5.25-37.84c-8.06-5.62-17.05-10.49-26.98-14.24
	c-58.26-22.29-146.13-5.25-158.49-0.56c-12.74,4.31-28.29,88.43-62.39,88.43c-34.1,0-49.65-84.12-62.39-88.43
	c-12.36-4.68-100.23-21.73-158.49,0.56c-9.93,3.75-18.92,8.43-26.98,14.24c2.44,12.36,4.31,25.1,5.25,37.84
	c0.94,10.49,1.5,20.8,1.5,31.66c0,31.29-3.75,61.45-11.43,90.3c-5.25,20.42-12.36,40.28-20.8,59.2c-0.94,1.87-1.87,4.31-2.81,6.18
	c-0.56,2.81-0.56,6.18-0.56,8.99c0,6.56,0,13.3,0.56,19.48v2.44c0,5.25,0.56,9.93,0.94,14.61c1.5,19.48,3.37,38.78,5.62,57.7
	c7.49,63.32,19.48,126.83,36.91,188.28c18.92,66.13,47.77,123.46,88.05,179.66c25.48,35.03,43.46,77.56,57.7,118.21
	c9.37,27.35,16.49,84.12,21.73,112.97h34.47c0,0,7.49,0,15.17,0v-436.51c-32.6-6.56-56.76-35.41-56.76-70.44
	c0-40.28,32.22-72.31,72.31-72.31c40.28,0,72.31,32.22,72.31,72.31c0,35.03-24.17,63.88-56.76,70.44v436.51c7.49,0,15.17,0,15.17,0
	h34.47c5.25-28.85,12.36-85.62,21.73-112.97c14.24-40.65,32.22-83.18,57.7-118.21c40.28-56.2,69.13-113.53,88.05-179.66
	c17.42-61.45,29.41-124.96,36.91-188.28c2.44-18.92,4.31-38.22,5.62-57.7c0.56-4.68,0.94-9.37,0.94-14.61v-2.44
	c0.56-6.18,0.56-12.74,0.56-19.48C1277.04,1089.76,1277.04,1086.39,1276.48,1083.58z"/>
<path id="XMLID_78_" d="M2000,448.3c-0.19,6.37-60.51-29.41-133.95-7.68c-72.13,21.36-149.69,96.29-138.82,178.16
	c10.49,79.81,101.35,138.45,95.17,154.93c-2.81,7.49-22.11-2.62-88.05-33.91c-52.46-25.1-78.87-37.66-81.31-38.03
	c-86.18-14.43-147.81,111.66-160.93,138.45c-14.8,29.97-8.24,26.23-27.54,69.5c-14.8,32.79-46.65,103.41-79.06,134.7v0.19
	c-17.61,18.36-38.78,26.79-63.32,25.48c-2.81-0.19-5.43-0.56-7.68-1.5c-0.37,0-0.56-0.19-0.94-0.37c-1.69-0.56-3.37-1.31-4.87-2.25
	c-0.37,0-0.56-0.19-0.56-0.37c-60.7-36.34-53.21-224.44-15.92-195.4c5.99,2.44,12.55,4.68,18.73,3.75
	c23.04-3.56,34.85-54.89,34.1-92.36c-1.87-119.15-130.58-222.94-120.84-244.3c5.99-12.55,58.64,9.74,96.11,62.39
	c40.47,56.95,31.47,104.54,59.01,130.2c41.59,38.97,135.82-1.5,169.55-92.73c56.76-154.56-76.25-412.53-54.33-423.58
	c10.3-5.25,45.15,49.83,70.07,104.91c60.14,133.58,51.89,245.42,72.88,253.66c22.11,8.62,20.61-118.96,84.3-175.73
	C1816.96,311.54,2000.56,437.06,2000,448.3z"/>
<path id="XMLID_79_" d="M0.3,448.3c0.19,6.37,60.51-29.41,133.95-7.68c72.13,21.36,149.69,96.29,138.82,178.16
	c-10.49,79.81-101.35,138.45-95.17,154.93c2.81,7.49,22.11-2.62,88.05-33.91c52.46-25.1,78.87-37.66,81.31-38.03
	c86.18-14.43,147.81,111.66,160.93,138.45c14.8,29.97,8.24,26.23,27.54,69.5c14.8,32.79,46.65,103.41,79.06,134.7v0.19
	c17.61,18.36,38.78,26.79,63.32,25.48c2.81-0.19,5.43-0.56,7.68-1.5c0.37,0,0.56-0.19,0.94-0.37c1.69-0.56,3.37-1.31,4.87-2.25
	c0.37,0,0.56-0.19,0.56-0.37c60.7-36.34,53.21-224.44,15.92-195.4c-5.99,2.44-12.55,4.68-18.73,3.75
	c-23.04-3.56-34.85-54.89-34.1-92.36c1.87-119.15,130.58-222.94,120.84-244.3c-5.99-12.55-58.64,9.74-96.11,62.39
	c-40.47,56.95-31.47,104.54-59.01,130.2c-41.59,38.97-135.82-1.5-169.55-92.73c-56.76-154.56,76.25-412.53,54.33-423.58
	c-10.3-5.25-45.15,49.83-70.07,104.91c-60.14,133.58-51.89,245.42-72.88,253.66c-22.11,8.62-20.61-118.96-84.3-175.73
	C183.33,311.54-0.26,437.06,0.3,448.3z"/>
</svg>
