<?xml version="1.0" encoding="utf-8"?>
<!-- Generator: Adobe Illustrator 19.0.0, SVG Export Plug-In . SVG Version: 6.00 Build 0)  -->
<svg version="1.1" id="Layer_1" xmlns="http://www.w3.org/2000/svg" xmlns:xlink="http://www.w3.org/1999/xlink" x="0px" y="0px"
	 viewBox="0 0 100 100" style="enable-background:new 0 0 100 100;" xml:space="preserve">
<path id="XMLID_220_" d="M60.5,63.1c-0.2,0.7-0.5,1.8-3,7.2c-2.1,4.6-3.1,6.9-3.6,7.8c-0.5,0.8-1,1.6-1.5,3
	c-0.2,0.7-0.5,1.8-0.7,2.7h-1V66.4c0.8-0.2,1.4-0.9,1.4-1.8c0-0.3-0.1-0.6-0.2-0.9c-0.3-0.6-0.9-0.9-1.5-1h-0.1
	c-0.9,0-1.6,0.6-1.8,1.4c0,0.1-0.1,0.3-0.1,0.4c0,0.9,0.6,1.6,1.4,1.8v17.3h-0.9c-0.2-0.9-0.4-1.9-0.7-2.7c-0.5-1.4-1-2.2-1.5-3
	c-0.5-0.9-1.6-3.2-3.6-7.8c-2.4-5.4-2.8-6.6-3-7.2c-0.9-3.4-0.8-5.1-0.7-5.8c0.3-1.8,0.7-1.9,1.3-4.2c0.9-3.8-0.1-5.1,0.8-6.1
	c1.5-1.5,6.3-1,8.6,1.7c2.4-2.7,7.2-3.2,8.6-1.7c0.9,1,0,2.3,0.8,6.1c0.5,2.3,1,2.4,1.3,4.2C61.2,58,61.4,59.7,60.5,63.1z"/>
<path id="XMLID_205_" d="M41.4,47.7"/>
<path id="XMLID_204_" d="M38,55.9c0.6-0.5,0.7-1.7,0.9-4c0.2-2-0.2-1.9,0-4.3c0-0.5,0.1-1-0.1-1.2c-0.3-0.3-0.9,0.7-1.7,0.8
	c-1.1,0.1-2.3-2-2.8-3.7c-1.5-5.4,3-11.7,2.3-12.5c-0.4-0.5-2.6,1.2-3.6,4c-1.1,3.1-0.1,5.1-1,6.6c-1.4,2.3-6.2,1.7-9-2
	c-4.6-6.2-1.9-19.5-3.1-19.7c-0.5-0.1-1.4,2.8-1.8,5.6c-1,6.8,0.9,11.7,0,12.3c-0.9,0.7-2.5-5.1-6.2-6.8C6.6,28.6-0.2,36.5,0,37
	c0.1,0.3,2.4-2.1,6-2.1c3.6,0,8.1,2.4,8.7,6.2c0.6,3.7-2.8,7.5-2.3,8.2c0.2,0.3,1-0.4,3.6-2.7c2.1-1.8,3.1-2.7,3.2-2.8
	c3.8-1.8,8.2,3.1,9.2,4.1c1.1,1.2,0.7,1.1,2.2,2.8C32.2,52.7,36.4,57.5,38,55.9z"/>
<path id="XMLID_194_" d="M62.8,55.9c-0.6-0.5-0.7-1.7-0.9-4c-0.2-2,0.2-1.9,0-4.3c0-0.5-0.1-1,0.1-1.2c0.3-0.3,0.9,0.7,1.6,0.8
	c1.1,0.1,2.3-2,2.7-3.7c1.4-5.4-3-11.7-2.3-12.5c0.4-0.5,2.5,1.2,3.5,4c1.1,3.1,0.1,5.1,1,6.6c1.4,2.3,6.1,1.7,8.8-2
	c4.5-6.2,1.9-19.5,3-19.7c0.5-0.1,1.4,2.8,1.8,5.6c1,6.8-0.8,11.7,0,12.3c0.9,0.7,2.5-5.1,6-6.8c5.4-2.6,12,5.4,11.8,5.9
	c-0.1,0.3-2.3-2.1-5.9-2.1c-3.5,0-8,2.4-8.5,6.2c-0.6,3.7,2.8,7.5,2.3,8.2c-0.2,0.3-1-0.4-3.5-2.7c-2-1.8-3.1-2.7-3.2-2.8
	c-3.7-1.8-8.1,3.1-9,4.1c-1.1,1.2-0.7,1.1-2.1,2.8C68.5,52.7,64.4,57.5,62.8,55.9z"/>
</svg>
