<?xml version="1.0" encoding="utf-8"?>
<!-- Generator: Adobe Illustrator 19.0.0, SVG Export Plug-In . SVG Version: 6.00 Build 0)  -->
<svg version="1.1" id="Layer_1" xmlns="http://www.w3.org/2000/svg" xmlns:xlink="http://www.w3.org/1999/xlink" x="0px" y="0px"
	 viewBox="0 0 56.7 56.7" style="enable-background:new 0 0 56.7 56.7;" xml:space="preserve">
<path id="XMLID_11_" d="M34.3,30.9c-0.1,0.4-0.3,1-1.7,4.1c-1.2,2.6-1.8,3.9-2.1,4.4c-0.3,0.4-0.6,0.9-0.8,1.7
	c-0.1,0.4-0.3,1-0.4,1.5h-0.4v-9.9c0.4-0.2,0.7-0.5,0.7-1c0-0.2-0.1-0.3-0.1-0.5c-0.2-0.3-0.5-0.5-0.9-0.6h-0.1
	c-0.5,0-0.9,0.3-1,0.8c0,0.1,0,0.2,0,0.2c0,0.5,0.3,0.8,0.7,1v9.8h-0.4c-0.1-0.5-0.2-1.1-0.4-1.5c-0.3-0.8-0.6-1.3-0.8-1.7
	c-0.3-0.5-0.9-1.8-2-4.4c-1.4-3.1-1.6-3.7-1.7-4.1c-0.5-1.9-0.4-2.9-0.4-3.3c0.2-1,0.4-1.1,0.7-2.4c0.5-2.1-0.1-2.9,0.5-3.4
	c0.8-0.9,3.5-0.6,4.9,0.9c1.3-1.5,4.1-1.8,4.9-0.9c0.5,0.6,0,1.3,0.5,3.4c0.3,1.3,0.6,1.3,0.7,2.4C34.7,28,34.8,28.9,34.3,30.9z"/>
<path id="XMLID_205_" d="M23.4,22.1"/>
<path id="XMLID_204_" d="M21.6,26.8c0.3-0.3,0.4-1,0.5-2.3c0.1-1.2-0.1-1.1,0-2.4c0-0.3,0.1-0.6-0.1-0.7c-0.2-0.2-0.5,0.4-0.9,0.4
	c-0.6,0.1-1.3-1.1-1.6-2.1c-0.8-3,1.7-6.6,1.3-7.1c-0.2-0.3-1.4,0.7-2,2.3c-0.6,1.7,0,2.9-0.6,3.7c-0.8,1.3-3.5,1-5.1-1.1
	c-2.6-3.5-1.1-11-1.8-11.2c-0.3-0.1-0.8,1.6-1,3.2c-0.6,3.8,0.5,6.6,0,7c-0.5,0.4-1.4-2.9-3.5-3.9c-3.1-1.5-6.9,3.1-6.8,3.3
	c0.1,0.2,1.4-1.2,3.4-1.2c2,0,4.6,1.4,4.9,3.5c0.3,2.1-1.6,4.3-1.3,4.6c0.1,0.2,0.6-0.2,2-1.5c1.2-1,1.8-1.5,1.8-1.6
	c2.1-1,4.7,1.8,5.2,2.3c0.6,0.7,0.4,0.6,1.2,1.6C18.3,24.9,20.6,27.7,21.6,26.8z"/>
<path id="XMLID_194_" d="M35.6,26.8c-0.3-0.3-0.4-1-0.5-2.3c-0.1-1.2,0.1-1.1,0-2.4c0-0.3-0.1-0.6,0.1-0.7c0.2-0.2,0.5,0.4,0.9,0.4
	c0.6,0.1,1.3-1.1,1.5-2.1c0.8-3-1.7-6.6-1.3-7.1c0.2-0.3,1.4,0.7,2,2.3c0.6,1.7,0,2.9,0.5,3.7c0.8,1.3,3.5,1,5-1.1
	c2.6-3.5,1.1-11,1.7-11.2c0.3-0.1,0.8,1.6,1,3.2c0.6,3.8-0.5,6.6,0,7c0.5,0.4,1.4-2.9,3.4-3.9c3-1.5,6.8,3.1,6.7,3.3
	c-0.1,0.2-1.3-1.2-3.4-1.2c-2,0-4.5,1.4-4.8,3.5c-0.3,2.1,1.6,4.3,1.3,4.6c-0.1,0.2-0.5-0.2-2-1.5c-1.2-1-1.7-1.5-1.8-1.6
	c-2.1-1-4.6,1.8-5.1,2.3c-0.6,0.7-0.4,0.6-1.2,1.6C38.8,24.9,36.5,27.7,35.6,26.8z"/>
<path id="XMLID_19_" d="M13.2,44.9v4.6h-0.8v-4.6h-1.7v-0.7h4.1v0.7H13.2z"/>
<path id="XMLID_23_" d="M19.8,47.3c0.5,0,0.8-0.2,1-0.5c0.2-0.3,0.3-0.6,0.3-1c0-0.5-0.1-0.9-0.4-1.2c-0.3-0.3-0.7-0.4-1.3-0.4h-0.2
	v0.7c0.5,0,0.8,0.1,0.9,0.2c0.2,0.1,0.3,0.4,0.3,0.7c0,0.3-0.1,0.5-0.3,0.7c-0.2,0.1-0.5,0.2-0.9,0.2v1l1.5,1.8h0.9L19.8,47.3z
	 M17.8,49.5h0.7v-5.3h-0.7V49.5z"/>
<path id="XMLID_27_" d="M25.6,49.4h-0.8v-5.3h0.8V49.4z"/>
<path id="XMLID_30_" d="M32.5,47c-0.2-0.2-0.5-0.4-0.8-0.5c0.3-0.1,0.4-0.2,0.6-0.4c0.1-0.2,0.2-0.4,0.2-0.7c0-0.3,0-0.5-0.2-0.7
	c-0.1-0.2-0.3-0.3-0.4-0.5c-0.1-0.1-0.3-0.1-0.5-0.2c-0.2,0-0.5,0-0.8,0v0.7c0.5,0,0.8,0.1,0.9,0.2c0.2,0.1,0.3,0.3,0.3,0.6
	c0,0.3-0.1,0.5-0.3,0.6c-0.2,0.1-0.4,0.1-0.9,0.2V47c0.6,0,1,0.1,1.2,0.2c0.2,0.1,0.3,0.4,0.3,0.7c0,0.3-0.1,0.5-0.3,0.7
	c-0.2,0.1-0.6,0.2-1.2,0.2v0.7h0.1c0.8,0,1.3-0.1,1.6-0.4c0.4-0.2,0.5-0.6,0.5-1.2C32.8,47.5,32.7,47.2,32.5,47z M29.1,44.2v5.3h0.7
	v-5.3H29.1z"/>
<path id="XMLID_34_" d="M36,44.2h0.8v2.9c0,0.6,0.1,1,0.3,1.3c0.2,0.3,0.5,0.4,0.9,0.4c0.4,0,0.7-0.1,0.9-0.4
	c0.2-0.3,0.3-0.7,0.3-1.3v-2.9h0.8v3c0,0.8-0.2,1.4-0.5,1.8c-0.3,0.4-0.8,0.6-1.4,0.6c-0.6,0-1.1-0.2-1.4-0.6
	c-0.3-0.4-0.5-1-0.5-1.8V44.2z"/>
<path id="XMLID_36_" d="M42.8,48.2l0.6-0.2c0.1,0.3,0.2,0.5,0.4,0.7s0.4,0.2,0.7,0.2c0.3,0,0.5-0.1,0.6-0.2c0.2-0.2,0.2-0.4,0.2-0.6
	c0-0.2-0.1-0.4-0.2-0.5c-0.1-0.1-0.4-0.3-0.8-0.5c-0.5-0.2-0.9-0.4-1.1-0.7c-0.2-0.2-0.3-0.5-0.3-0.9c0-0.4,0.1-0.8,0.4-1
	s0.6-0.4,1.1-0.4c0.3,0,0.6,0.1,0.8,0.2c0.2,0.1,0.5,0.3,0.7,0.6l-0.5,0.5c-0.2-0.2-0.3-0.4-0.5-0.5c-0.2-0.1-0.3-0.2-0.5-0.2
	c-0.2,0-0.4,0.1-0.5,0.2c-0.1,0.1-0.2,0.3-0.2,0.5c0,0.2,0,0.3,0.1,0.4s0.2,0.2,0.4,0.3c0.2,0.1,0.4,0.2,0.6,0.3
	c0.2,0.1,0.4,0.2,0.4,0.2c0.3,0.2,0.5,0.4,0.7,0.6c0.1,0.2,0.2,0.5,0.2,0.8c0,0.5-0.1,0.8-0.4,1.1c-0.3,0.3-0.7,0.4-1.1,0.4
	c-0.5,0-0.8-0.1-1.1-0.4C43,49,42.8,48.6,42.8,48.2z"/>
</svg>
